<svg width="192" height="192" viewBox="0 0 192 192" fill="none" xmlns="http://www.w3.org/2000/svg">
<circle cx="96" cy="96" r="95.625" fill="#D4E8FD" stroke="black" stroke-width="0.75"/>
<circle cx="96.5" cy="79.5" r="22.125" fill="white" stroke="black" stroke-width="0.75"/>
<mask id="path-3-inside-1_675_68" fill="white">
<path fill-rule="evenodd" clip-rule="evenodd" d="M32 166.984C36.3236 134.802 63.5762 110 96.5506 110C129.278 110 156.369 134.431 161 166.262C143.963 182.236 121.163 192 96.1104 192C71.4378 192 48.95 182.53 32 166.984Z"/>
</mask>
<path fill-rule="evenodd" clip-rule="evenodd" d="M32 166.984C36.3236 134.802 63.5762 110 96.5506 110C129.278 110 156.369 134.431 161 166.262C143.963 182.236 121.163 192 96.1104 192C71.4378 192 48.95 182.53 32 166.984Z" fill="white"/>
<path d="M32 166.984L31.2567 166.884L31.2046 167.272L31.4931 167.537L32 166.984ZM161 166.262L161.513 166.809L161.799 166.541L161.742 166.154L161 166.262ZM32.7433 167.084C37.0185 135.262 63.9639 110.75 96.5506 110.75V109.25C63.1885 109.25 35.6287 134.342 31.2567 166.884L32.7433 167.084ZM96.5506 110.75C128.893 110.75 155.678 134.895 160.258 166.369L161.742 166.154C157.059 133.967 129.662 109.25 96.5506 109.25V110.75ZM160.487 165.714C143.583 181.564 120.964 191.25 96.1104 191.25V192.75C121.362 192.75 144.343 182.907 161.513 166.809L160.487 165.714ZM96.1104 191.25C71.6339 191.25 49.3249 181.856 32.5069 166.431L31.4931 167.537C48.5752 183.204 71.2418 192.75 96.1104 192.75V191.25Z" fill="black" mask="url(#path-3-inside-1_675_68)"/>
</svg>
