<?xml version="1.0" encoding="utf-8"?>
<!-- Generator: Adobe Illustrator 26.3.1, SVG Export Plug-In . SVG Version: 6.00 Build 0)  -->
<svg version="1.1" xmlns="http://www.w3.org/2000/svg" xmlns:xlink="http://www.w3.org/1999/xlink" x="0px" y="0px"
	 viewBox="0 0 500 500" style="enable-background:new 0 0 500 500;" xml:space="preserve">
<style type="text/css">
	.st0{fill:#EBEBEB;}
	.st1{fill:#E6E6E6;}
	.st2{fill:#F0F0F0;}
	.st3{fill:#FAFAFA;}
	.st4{fill:#FFFFFF;}
	.st5{opacity:0.6;fill:#EBEBEB;}
	.st6{fill:#F5F5F5;}
	.st7{fill:#E0E0E0;}
	.st8{display:none;}
	.st9{display:inline;}
	.st10{fill:#407BFF;}
	.st11{opacity:0.9;fill:#FFFFFF;}
	.st12{opacity:0.5;fill:#FFFFFF;}
</style>
<g id="Background_Complete">
	<g>
		<rect y="382.4" class="st0" width="500" height="0.25"/>
		<rect x="416.78" y="398.49" class="st0" width="33.12" height="0.25"/>
		<rect x="322.53" y="401.21" class="st0" width="8.69" height="0.25"/>
		<rect x="396.59" y="389.21" class="st0" width="19.19" height="0.25"/>
		<rect x="52.46" y="390.89" class="st0" width="43.19" height="0.25"/>
		<rect x="104.56" y="390.89" class="st0" width="6.33" height="0.25"/>
		<rect x="131.47" y="395.11" class="st0" width="93.68" height="0.25"/>
		<path class="st0" d="M237.01,337.8H43.92c-3.15,0-5.71-2.56-5.71-5.71V60.66c0-3.15,2.56-5.71,5.71-5.71h193.1
			c3.15,0,5.71,2.56,5.71,5.71v271.43C242.72,335.24,240.16,337.8,237.01,337.8z M43.92,55.2c-3.01,0-5.46,2.45-5.46,5.46v271.43
			c0,3.01,2.45,5.46,5.46,5.46h193.1c3.01,0,5.46-2.45,5.46-5.46V60.66c0-3.01-2.45-5.46-5.46-5.46H43.92z"/>
		<path class="st0" d="M453.31,337.8h-193.1c-3.15,0-5.71-2.56-5.71-5.71V60.66c0-3.15,2.56-5.71,5.71-5.71h193.1
			c3.15,0,5.71,2.56,5.71,5.71v271.43C459.02,335.24,456.46,337.8,453.31,337.8z M260.21,55.2c-3.01,0-5.46,2.45-5.46,5.46v271.43
			c0,3.01,2.45,5.46,5.46,5.46h193.1c3.01,0,5.46-2.45,5.46-5.46V60.66c0-3.01-2.45-5.46-5.46-5.46H260.21z"/>
	</g>
	<g>
		
			<rect x="289.69" y="83.83" transform="matrix(-1 -1.224647e-16 1.224647e-16 -1 717.1623 257.8902)" class="st1" width="137.78" height="90.23"/>
		
			<rect x="285.49" y="83.83" transform="matrix(-1 -1.224647e-16 1.224647e-16 -1 710.9939 257.8902)" class="st2" width="140.02" height="90.23"/>
		
			<rect x="289.69" y="174.06" transform="matrix(-1 -1.224647e-16 1.224647e-16 -1 717.1623 365.8246)" class="st1" width="137.78" height="17.71"/>
		
			<rect x="278.48" y="174.06" transform="matrix(-1 -1.224647e-16 1.224647e-16 -1 696.9867 365.8246)" class="st2" width="140.02" height="17.71"/>
		
			<rect x="316.27" y="64.82" transform="matrix(-1.836970e-16 1 -1 -1.836970e-16 484.4421 -226.5519)" class="st3" width="78.46" height="128.25"/>
		<polygon class="st4" points="390.7,168.17 374.32,89.72 348.76,89.72 365.14,168.17 		"/>
		<path class="st2" d="M416.9,162.32c0.23,0,0.42-0.19,0.42-0.42V93.55c0-0.23-0.19-0.42-0.42-0.42c-0.23,0-0.42,0.19-0.42,0.42
			v68.35C416.48,162.13,416.66,162.32,416.9,162.32z"/>
		<polygon class="st4" points="359.65,168.17 343.27,89.72 333.3,89.72 349.69,168.17 		"/>
		
			<rect x="252.52" y="128.57" transform="matrix(-1.836970e-16 1 -1 -1.836970e-16 420.6911 -162.8009)" class="st1" width="78.46" height="0.75"/>
		<polygon class="st5" points="284.09,98.59 421.88,98.59 422.42,92 284.64,92 		"/>
		<polygon class="st5" points="284.09,109.39 421.88,109.39 422.42,102.81 284.64,102.81 		"/>
		<polygon class="st5" points="284.09,120.2 421.88,120.2 422.42,113.61 284.64,113.61 		"/>
		<polygon class="st5" points="284.09,131 421.88,131 422.42,124.41 284.64,124.41 		"/>
		<polygon class="st5" points="284.09,141.8 421.88,141.8 422.42,135.21 284.64,135.21 		"/>
		<polygon class="st5" points="284.09,152.6 421.88,152.6 422.42,146.02 284.64,146.02 		"/>
	</g>
	<g>
		<g>
			<g>
				<rect x="378.8" y="316.78" class="st1" width="28.89" height="5.7"/>
				
					<rect x="324.31" y="251.33" transform="matrix(-1 -1.224647e-16 1.224647e-16 -1 653.9484 633.7317)" class="st1" width="5.33" height="131.07"/>
				
					<rect x="305.84" y="316.78" transform="matrix(-1 -1.224647e-16 1.224647e-16 -1 684.6346 639.2583)" class="st6" width="72.96" height="5.7"/>
				<rect x="378.8" y="347.95" class="st1" width="28.89" height="5.7"/>
				
					<rect x="305.84" y="347.95" transform="matrix(-1 -1.224647e-16 1.224647e-16 -1 684.6346 701.5915)" class="st6" width="72.96" height="5.7"/>
				<rect x="378.8" y="254.45" class="st1" width="28.89" height="5.7"/>
				
					<rect x="305.84" y="254.45" transform="matrix(-1 -1.224647e-16 1.224647e-16 -1 684.6346 514.5915)" class="st6" width="72.96" height="5.7"/>
				<rect x="378.8" y="285.61" class="st1" width="28.89" height="5.7"/>
				
					<rect x="305.84" y="285.61" transform="matrix(-1 -1.224647e-16 1.224647e-16 -1 684.6346 576.9249)" class="st6" width="72.96" height="5.7"/>
			</g>
		</g>
		
			<rect x="397.27" y="251.33" transform="matrix(-1 -1.224647e-16 1.224647e-16 -1 799.8751 633.7317)" class="st1" width="5.33" height="131.07"/>
		
			<rect x="373.47" y="251.33" transform="matrix(-1 -1.224647e-16 1.224647e-16 -1 752.2646 633.7317)" class="st6" width="5.33" height="131.07"/>
		
			<rect x="305.84" y="251.33" transform="matrix(-1 -1.224647e-16 1.224647e-16 -1 617.0045 633.7317)" class="st6" width="5.33" height="131.07"/>
	</g>
	<g>
		<g>
			
				<rect x="65.37" y="276.51" transform="matrix(-1 -1.224647e-16 1.224647e-16 -1 185.3254 658.9061)" class="st1" width="54.58" height="105.89"/>
			<polygon class="st3" points="79.95,382.4 65.37,382.4 65.37,367.78 95.23,367.78 			"/>
			
				<rect x="214.18" y="276.51" transform="matrix(-1 -1.224647e-16 1.224647e-16 -1 482.9448 658.9061)" class="st1" width="54.58" height="105.89"/>
			
				<rect x="65.37" y="276.51" transform="matrix(-1 -1.224647e-16 1.224647e-16 -1 292.2764 653.8746)" class="st3" width="161.53" height="100.86"/>
			<polygon class="st3" points="212.33,382.4 226.9,382.4 226.9,367.78 197.05,367.78 			"/>
			
				<rect x="76.68" y="314.09" transform="matrix(-1 -1.224647e-16 1.224647e-16 -1 292.2764 653.4225)" class="st2" width="138.92" height="25.24"/>
			
				<rect x="76.68" y="344.73" transform="matrix(-1 -1.224647e-16 1.224647e-16 -1 292.2764 714.6938)" class="st2" width="138.92" height="25.24"/>
			<path class="st3" d="M103.08,316.79h86.11c2.53,0,4.58-2.05,4.58-4.58v-0.31H98.51v0.31
				C98.51,314.74,100.56,316.79,103.08,316.79z"/>
			
				<rect x="76.68" y="283.46" transform="matrix(-1 -1.224647e-16 1.224647e-16 -1 292.2764 592.1511)" class="st2" width="138.92" height="25.24"/>
			<path class="st3" d="M103.08,286.15h86.11c2.53,0,4.58-2.05,4.58-4.58v-0.31H98.51v0.31C98.51,284.1,100.56,286.15,103.08,286.15
				z"/>
			<path class="st3" d="M103.08,347.43h86.11c2.53,0,4.58-2.05,4.58-4.58v-0.31H98.51v0.31
				C98.51,345.38,100.56,347.43,103.08,347.43z"/>
		</g>
	</g>
	<g>
		
			<rect x="74.07" y="83.83" transform="matrix(-1 -1.224647e-16 1.224647e-16 -1 285.9172 257.8902)" class="st1" width="137.78" height="90.23"/>
		
			<rect x="69.86" y="83.83" transform="matrix(-1 -1.224647e-16 1.224647e-16 -1 279.7489 257.8902)" class="st2" width="140.02" height="90.23"/>
		
			<rect x="74.07" y="174.06" transform="matrix(-1 -1.224647e-16 1.224647e-16 -1 285.9172 365.8246)" class="st1" width="137.78" height="17.71"/>
		
			<rect x="62.86" y="174.06" transform="matrix(-1 -1.224647e-16 1.224647e-16 -1 265.7415 365.8246)" class="st2" width="140.02" height="17.71"/>
		
			<rect x="100.65" y="64.82" transform="matrix(-1.836970e-16 1 -1 -1.836970e-16 268.8195 -10.9293)" class="st3" width="78.46" height="128.25"/>
		<polygon class="st4" points="175.08,168.17 158.7,89.72 133.14,89.72 149.52,168.17 		"/>
		<path class="st2" d="M201.27,162.32c0.23,0,0.42-0.19,0.42-0.42V93.55c0-0.23-0.19-0.42-0.42-0.42c-0.23,0-0.42,0.19-0.42,0.42
			v68.35C200.85,162.13,201.04,162.32,201.27,162.32z"/>
		<polygon class="st4" points="144.03,168.17 127.65,89.72 117.68,89.72 134.06,168.17 		"/>
		
			<rect x="36.9" y="128.57" transform="matrix(-1.836970e-16 1 -1 -1.836970e-16 205.0685 52.8217)" class="st1" width="78.46" height="0.75"/>
		<polygon class="st5" points="68.47,98.59 206.25,98.59 206.79,92 69.01,92 		"/>
		<polygon class="st5" points="68.47,102.31 206.25,102.31 206.79,95.72 69.01,95.72 		"/>
		<polygon class="st5" points="68.47,106.02 206.25,106.02 206.79,99.44 69.01,99.44 		"/>
		<polygon class="st5" points="68.47,109.74 206.25,109.74 206.79,103.15 69.01,103.15 		"/>
		<polygon class="st5" points="68.47,113.45 206.25,113.45 206.79,106.87 69.01,106.87 		"/>
		<polygon class="st5" points="68.47,117.17 206.25,117.17 206.79,110.58 69.01,110.58 		"/>
	</g>
	<g>
		
			<rect x="96.01" y="220.18" transform="matrix(-1 -1.224647e-16 1.224647e-16 -1 196.7898 493.45)" class="st6" width="4.76" height="53.09"/>
		
			<rect x="96.63" y="220.14" transform="matrix(-1 -1.224647e-16 1.224647e-16 -1 194.5989 493.3764)" class="st3" width="1.35" height="53.09"/>
		
			<rect x="98.54" y="220.14" transform="matrix(-1 -1.224647e-16 1.224647e-16 -1 197.5986 493.3766)" class="st3" width="0.53" height="53.09"/>
		<path class="st2" d="M80.76,276.51h35.26v0c0-2.45-1.99-4.44-4.44-4.44H85.21C82.75,272.06,80.76,274.05,80.76,276.51
			L80.76,276.51z"/>
		<path class="st2" d="M89.83,253.14L89.83,253.14c0.75,0,1.37-0.62,1.37-1.37v-34.81c0-0.75-0.62-1.37-1.37-1.37l0,0
			c-0.75,0-1.37,0.62-1.37,1.37v34.81C88.46,252.52,89.08,253.14,89.83,253.14z"/>
		<polygon class="st7" points="77.07,232.8 119.72,232.8 114.81,203 81.98,203 		"/>
	</g>
</g>
<g id="Background_Simple" class="st8">
	<g class="st9">
		<path class="st10" d="M240.47,127.1c48.1,5.38,69.22-36.32,116.88-30.86c42.54,4.87,71.88,35.18,61.95,76.01
			c-8.81,36.24-50.81,47.61-65.74,81.56c-15.83,35.99-28.1,74.79-75.9,87.32c-93.85,24.6-139.44-90.88-145.83-157.21
			c-2.45-25.46-6.73-86.33,26.5-94.21C191.79,81.76,210.96,123.8,240.47,127.1z"/>
		<path class="st11" d="M240.47,127.1c48.1,5.38,69.22-36.32,116.88-30.86c42.54,4.87,71.88,35.18,61.95,76.01
			c-8.81,36.24-50.81,47.61-65.74,81.56c-15.83,35.99-28.1,74.79-75.9,87.32c-93.85,24.6-139.44-90.88-145.83-157.21
			c-2.45-25.46-6.73-86.33,26.5-94.21C191.79,81.76,210.96,123.8,240.47,127.1z"/>
	</g>
</g>
<g id="Shadow_1_">
	<ellipse id="_x3C_Path_x3E__130_" class="st6" cx="250" cy="416.24" rx="193.89" ry="11.32"/>
</g>
<g id="Window_No_Data">
	<g>
		<g>
			
				<rect x="103.86" y="208.52" transform="matrix(0.9974 -0.0718 0.0718 0.9974 -15.4536 8.0667)" class="st10" width="1.12" height="20.72"/>
			
				<rect x="105.66" y="239.88" transform="matrix(0.9974 -0.0719 0.0719 0.9974 -17.2418 8.2622)" class="st10" width="1.12" height="7.79"/>
			<path class="st10" d="M366.03,334.93H126.02c-5.43,0-10.19-4.44-10.58-9.87l-11.79-163.77c-0.39-5.43,3.73-9.87,9.16-9.87h240.01
				c5.43,0,10.19,4.44,10.58,9.87l11.79,163.77C375.58,330.48,371.46,334.93,366.03,334.93z"/>
			<g>
				<g>
					<path class="st10" d="M366.95,334.93H126.94c-5.43,0-10.19-4.44-10.58-9.87l-11.79-163.77c-0.39-5.43,3.73-9.87,9.16-9.87
						h240.01c5.43,0,10.19,4.44,10.58,9.87l11.79,163.77C376.5,330.48,372.38,334.93,366.95,334.93z"/>
					<path class="st12" d="M366.95,334.93H126.94c-5.43,0-10.19-4.44-10.58-9.87l-11.79-163.77c-0.39-5.43,3.73-9.87,9.16-9.87
						h240.01c5.43,0,10.19,4.44,10.58,9.87l11.79,163.77C376.5,330.48,372.38,334.93,366.95,334.93z"/>
				</g>
				<path class="st10" d="M354.09,156.35H114.08c-0.27,0-0.54,0.01-0.8,0.03c-6.14,0.51-4.88,9.84,1.31,9.84H355
					c6.19,0,6.1-9.33-0.11-9.84C354.63,156.36,354.36,156.35,354.09,156.35z"/>
				<path class="st3" d="M120.33,161.29c0.09,1.25-0.85,2.26-2.1,2.26c-1.25,0-2.34-1.01-2.43-2.26c-0.09-1.25,0.85-2.26,2.1-2.26
					C119.16,159.02,120.24,160.04,120.33,161.29z"/>
				<path class="st3" d="M128.03,161.29c0.09,1.25-0.85,2.26-2.1,2.26c-1.25,0-2.34-1.01-2.43-2.26c-0.09-1.25,0.85-2.26,2.1-2.26
					C126.85,159.02,127.94,160.04,128.03,161.29z"/>
				<path class="st3" d="M135.73,161.29c0.09,1.25-0.85,2.26-2.1,2.26c-1.25,0-2.34-1.01-2.43-2.26c-0.09-1.25,0.85-2.26,2.1-2.26
					C134.55,159.02,135.64,160.04,135.73,161.29z"/>
			</g>
			<path class="st4" d="M360.58,318.58H130.95c-1.98,0-3.69-1.6-3.84-3.58l-9.7-134.68c-0.14-1.98,1.34-3.58,3.32-3.58h229.64
				c1.98,0,3.69,1.6,3.84,3.58L363.9,315C364.05,316.98,362.56,318.58,360.58,318.58z"/>
		</g>
		<g>
			<g>
				<g>
					<g>
						<polygon class="st4" points="263.84,267.28 260.1,215.37 248.78,208.55 217.62,208.55 221.84,267.28 						"/>
						<path class="st10" d="M263.84,267.82h-42c-0.28,0-0.52-0.22-0.54-0.5l-4.23-58.73c-0.01-0.15,0.04-0.3,0.14-0.41
							c0.1-0.11,0.25-0.17,0.4-0.17h31.16c0.1,0,0.2,0.03,0.28,0.08l11.33,6.82c0.15,0.09,0.25,0.25,0.26,0.43l3.74,51.91
							c0.01,0.15-0.04,0.3-0.14,0.41C264.13,267.76,263.99,267.82,263.84,267.82z M222.35,266.73h40.91l-3.68-51.05l-10.96-6.59
							H218.2L222.35,266.73z"/>
					</g>
					<g>
						<polygon class="st0" points="260.1,215.37 248.78,208.55 252.93,217.58 						"/>
						<path class="st10" d="M252.93,218.12c-0.21,0-0.4-0.12-0.49-0.32l-4.16-9.03c-0.1-0.22-0.05-0.47,0.13-0.63
							c0.18-0.16,0.44-0.18,0.64-0.06l11.33,6.82c0.18,0.11,0.28,0.32,0.26,0.53c-0.03,0.21-0.17,0.39-0.38,0.45l-7.17,2.21
							C253.04,218.12,252.99,218.12,252.93,218.12z M250.01,209.92l3.22,7l5.55-1.72L250.01,209.92z"/>
					</g>
				</g>
				<g>
					<path class="st10" d="M235.19,235.01c0.09,1.31-0.89,2.37-2.2,2.37s-2.45-1.06-2.54-2.37c-0.09-1.31,0.89-2.37,2.2-2.37
						S235.1,233.7,235.19,235.01z"/>
					<path class="st10" d="M250.59,235.01c0.09,1.31-0.89,2.37-2.2,2.37c-1.31,0-2.45-1.06-2.54-2.37c-0.09-1.31,0.89-2.37,2.2-2.37
						C249.35,232.64,250.49,233.7,250.59,235.01z"/>
					<path class="st10" d="M254.93,250.4c-0.28,0-0.52-0.22-0.54-0.5c-0.27-3.81-6.26-6.92-13.34-6.92c-4.69,0-8.9,1.39-10.99,3.64
						c-0.93,1-1.36,2.07-1.28,3.2c0.02,0.3-0.2,0.56-0.5,0.58c-0.3,0.02-0.56-0.2-0.58-0.5c-0.1-1.42,0.44-2.81,1.57-4.02
						c2.29-2.46,6.8-3.99,11.78-3.99c7.77,0,14.1,3.48,14.42,7.93c0.02,0.3-0.2,0.56-0.5,0.58
						C254.96,250.39,254.94,250.4,254.93,250.4z"/>
				</g>
				<path class="st10" d="M226.45,230.2c-0.13,0-0.26-0.05-0.37-0.14c-0.22-0.2-0.23-0.55-0.03-0.77l2.38-2.56
					c0.2-0.22,0.55-0.23,0.77-0.03c0.22,0.2,0.23,0.55,0.03,0.77l-2.38,2.56C226.74,230.14,226.6,230.2,226.45,230.2z"/>
				<path class="st10" d="M253.81,230.2c-0.13,0-0.27-0.05-0.37-0.15l-2.75-2.56c-0.22-0.2-0.23-0.55-0.03-0.77
					c0.2-0.22,0.55-0.23,0.77-0.03l2.75,2.56c0.22,0.2,0.23,0.55,0.03,0.77C254.11,230.14,253.96,230.2,253.81,230.2z"/>
			</g>
			<g>
				<path class="st10" d="M214.22,278.88h2.53l3.66,4.86l-0.35-4.86h2.56l0.63,8.78h-2.56l-3.63-4.82l0.35,4.82h-2.55L214.22,278.88
					z"/>
				<path class="st10" d="M224.4,283.28c-0.1-1.43,0.22-2.55,0.96-3.35c0.74-0.8,1.82-1.2,3.25-1.2c1.46,0,2.61,0.39,3.46,1.18
					c0.85,0.78,1.32,1.88,1.42,3.3c0.07,1.03-0.04,1.87-0.34,2.52c-0.3,0.66-0.76,1.17-1.39,1.53c-0.63,0.37-1.43,0.55-2.4,0.55
					c-0.99,0-1.82-0.16-2.49-0.47c-0.67-0.32-1.23-0.81-1.69-1.5C224.73,285.16,224.47,284.3,224.4,283.28z M227.11,283.29
					c0.06,0.89,0.27,1.52,0.63,1.91c0.36,0.39,0.82,0.58,1.39,0.58c0.58,0,1.02-0.19,1.31-0.57c0.29-0.38,0.4-1.06,0.33-2.04
					c-0.06-0.83-0.27-1.43-0.63-1.81c-0.36-0.38-0.83-0.57-1.4-0.57c-0.55,0-0.97,0.19-1.28,0.58
					C227.16,281.75,227.04,282.39,227.11,283.29z"/>
				<path class="st10" d="M238.76,278.88h4.03c0.79,0,1.44,0.11,1.95,0.32c0.5,0.22,0.93,0.52,1.28,0.93
					c0.35,0.4,0.61,0.87,0.8,1.41c0.18,0.53,0.29,1.1,0.34,1.7c0.07,0.94,0.01,1.67-0.16,2.18c-0.18,0.52-0.44,0.95-0.8,1.3
					c-0.35,0.35-0.74,0.58-1.17,0.7c-0.58,0.16-1.12,0.24-1.6,0.24h-4.03L238.76,278.88z M241.62,280.87l0.35,4.8h0.66
					c0.57,0,0.97-0.06,1.2-0.19c0.23-0.13,0.4-0.35,0.52-0.66c0.11-0.31,0.14-0.82,0.09-1.52c-0.07-0.93-0.26-1.57-0.59-1.91
					c-0.33-0.34-0.84-0.52-1.55-0.52H241.62z"/>
				<path class="st10" d="M253.66,286.21h-3.08l-0.32,1.45h-2.77l2.67-8.78h2.96l3.93,8.78h-2.84L253.66,286.21z M252.96,284.31
					l-1.2-3.16l-0.73,3.16H252.96z"/>
				<path class="st10" d="M255.82,278.88h8.25l0.16,2.17h-2.77l0.48,6.61h-2.71l-0.48-6.61h-2.77L255.82,278.88z"/>
				<path class="st10" d="M270.38,286.21h-3.08l-0.32,1.45h-2.77l2.67-8.78h2.96l3.93,8.78h-2.84L270.38,286.21z M269.68,284.31
					l-1.2-3.16l-0.73,3.16H269.68z"/>
			</g>
		</g>
	</g>
</g>
<g id="Character_1_">
</g>
</svg>
