<svg width="24" height="24" viewBox="0 0 24 24" fill="none" xmlns="http://www.w3.org/2000/svg">
<path d="M1 4.97222C1 2.77842 2.77842 1 4.97222 1H19.0278C21.2216 1 23 2.77842 23 4.97222V19.0278C23 21.2216 21.2216 23 19.0278 23H4.97222C2.77842 23 1 21.2216 1 19.0278V4.97222ZM12.9167 6.80556C12.9167 6.29929 12.5063 5.88889 12 5.88889C11.4937 5.88889 11.0833 6.29929 11.0833 6.80556V11.0833H6.80556C6.29929 11.0833 5.88889 11.4937 5.88889 12C5.88889 12.5063 6.29929 12.9167 6.80556 12.9167H11.0833V17.1944C11.0833 17.7007 11.4937 18.1111 12 18.1111C12.5063 18.1111 12.9167 17.7007 12.9167 17.1944V12.9167H17.1944C17.7007 12.9167 18.1111 12.5063 18.1111 12C18.1111 11.4937 17.7007 11.0833 17.1944 11.0833H12.9167V6.80556Z" fill="#212121"/>
</svg>
