<svg width="58" height="58" viewBox="0 0 58 58" fill="none" xmlns="http://www.w3.org/2000/svg">
<path d="M16.3065 16.9532C9.65322 23.9636 9.94272 35.0402 16.9531 41.6935C23.9635 48.3468 35.0401 48.0573 41.6934 41.0469C48.3467 34.0365 48.0572 22.9599 41.0468 16.3066C34.0364 9.65329 22.9598 9.94279 16.3065 16.9532ZM15.2321 43.5068C7.22026 35.9031 6.8894 23.2441 14.4932 15.2322C22.0969 7.22032 34.7559 6.88947 42.7678 14.4932C50.7797 22.097 51.1105 34.7559 43.5068 42.7678C35.903 50.7797 23.244 51.1106 15.2321 43.5068Z" fill="black"/>
<path d="M21.7734 21.4522C17.6151 25.8337 17.796 32.7566 22.1775 36.9149C26.559 41.0732 33.4819 40.8923 37.6402 36.5108C41.7985 32.1293 41.6176 25.2064 37.2361 21.0481C32.8546 16.8898 25.9317 17.0707 21.7734 21.4522ZM21.1019 38.0482C16.0945 33.2959 15.8877 25.384 20.64 20.3766C25.3924 15.3692 33.3042 15.1624 38.3117 19.9147C43.3191 24.6671 43.5259 32.5789 38.7735 37.5864C34.0212 42.5938 26.1093 42.8006 21.1019 38.0482Z" fill="black"/>
<rect x="14.53" y="16.646" width="3" height="8" transform="rotate(-46.4972 14.53 16.646)" fill="black"/>
<rect x="37.0156" y="37.9861" width="3" height="7" transform="rotate(-46.4972 37.0156 37.9861)" fill="black"/>
<rect x="18.1951" y="43.4827" width="3" height="7" transform="rotate(-137.586 18.1951 43.4827)" fill="black"/>
<rect x="38.8467" y="21.7224" width="3" height="7" transform="rotate(-137.586 38.8467 21.7224)" fill="black"/>
</svg>
